<svg xmlns="http://www.w3.org/2000/svg" width="900" height="680" viewBox="0 0 900 680" role="img" aria-label="艺集样品作品 08"><rect width="900" height="680" fill="#2a9d8f"/><rect x="24" y="24" width="852" height="632" fill="none" stroke="#264653" stroke-width="2" opacity="0.18"/><path d="M 57.8 555.2 C 328.8 518.8, 493.4 125.6, 872.0 306.2 C 224.9 6.9, 523.5 387.8, 853.2 82.6 C 191.2 436.1, 502.9 53.1, 836.3 105.8 C 218.0 147.4, 483.8 665.4, 848.5 294.5 C 294.6 16.7, 537.7 461.7, 862.6 302.6" fill="none" stroke="#264653" stroke-width="7.7" opacity="0.27"/><path d="M 35.3 525.2 C 196.2 662.0, 441.8 438.6, 873.9 142.1 C 269.1 513.0, 471.6 56.4, 781.1 152.4 C 331.9 504.2, 439.6 324.9, 837.1 352.1 C 247.8 112.7, 532.6 486.9, 795.0 157.1 C 285.6 457.2, 527.0 436.2, 812.2 72.3" fill="none" stroke="#2a9d8f" stroke-width="7.7" opacity="0.60"/><path d="M 79.8 404.0 C 248.3 68.1, 517.3 202.9, 874.1 304.1 C 237.0 640.4, 566.1 167.0, 838.2 104.0 C 354.2 330.1, 529.3 390.8, 789.5 285.3 C 245.8 648.5, 430.7 558.1, 802.4 352.9 C 222.1 461.8, 538.4 493.4, 875.1 505.2" fill="none" stroke="#e9c46a" stroke-width="8.0" opacity="0.38"/><path d="M 107.6 130.9 C 196.6 375.1, 534.6 200.5, 868.1 278.6 C 273.2 260.2, 502.1 395.5, 803.4 74.4 C 358.8 541.3, 428.4 552.0, 835.3 526.5 C 228.2 172.1, 554.5 506.3, 762.5 114.8 C 299.7 211.5, 479.5 22.8, 875.2 325.5" fill="none" stroke="#f4a261" stroke-width="6.5" opacity="0.20"/><path d="M 121.6 404.8 C 215.6 638.1, 427.0 51.1, 782.4 381.0 C 194.4 369.7, 531.7 522.0, 827.5 48.2 C 232.7 132.4, 575.6 461.2, 868.2 62.5 C 302.8 273.2, 492.5 644.3, 778.0 584.6 C 247.6 8.4, 498.7 530.0, 795.1 513.9" fill="none" stroke="#264653" stroke-width="7.7" opacity="0.63"/><path d="M 80.6 183.8 C 277.8 131.7, 431.2 212.4, 769.8 273.4 C 283.6 548.1, 533.3 196.7, 870.2 255.3 C 263.2 77.9, 528.5 583.0, 800.8 302.1 C 343.3 308.6, 454.0 601.2, 810.4 62.3 C 316.0 74.0, 565.0 383.5, 859.5 490.8" fill="none" stroke="#2a9d8f" stroke-width="4.6" opacity="0.31"/><path d="M 23.0 517.2 C 228.7 184.5, 471.8 430.3, 855.2 51.1 C 193.3 642.1, 473.3 47.5, 848.3 278.6 C 182.2 353.5, 436.4 439.6, 845.5 250.8 C 351.0 159.9, 445.0 20.0, 797.3 435.0 C 257.5 54.7, 553.9 581.4, 825.4 62.2" fill="none" stroke="#e9c46a" stroke-width="8.1" opacity="0.67"/><path d="M 121.4 406.8 C 304.9 434.5, 476.9 606.7, 836.2 358.8 C 250.9 564.4, 421.6 255.9, 762.3 591.1 C 196.0 276.1, 444.3 564.2, 824.4 169.3 C 259.1 363.5, 427.3 28.5, 783.9 135.5 C 300.7 506.0, 422.0 623.2, 829.3 543.2" fill="none" stroke="#f4a261" stroke-width="7.1" opacity="0.19"/><path d="M 38.4 543.1 C 264.4 372.4, 530.5 13.8, 809.3 115.5 C 194.6 166.5, 503.3 235.7, 789.3 589.5 C 263.2 216.6, 455.9 62.8, 799.4 460.1 C 211.4 582.4, 579.9 339.3, 839.9 465.4 C 319.0 199.2, 426.4 173.9, 772.7 222.2" fill="none" stroke="#264653" stroke-width="6.7" opacity="0.67"/><path d="M 85.1 460.4 C 337.0 284.5, 443.7 234.4, 798.7 502.9 C 187.0 574.6, 474.8 253.1, 859.8 453.7 C 242.0 37.9, 433.5 347.4, 789.0 125.9 C 192.7 422.9, 537.6 478.9, 813.9 446.9 C 228.3 61.7, 527.3 614.3, 830.8 99.9" fill="none" stroke="#2a9d8f" stroke-width="2.8" opacity="0.68"/><path d="M 36.3 124.2 C 327.7 483.4, 529.8 294.1, 856.0 520.1 C 357.5 234.4, 484.3 255.9, 796.7 249.0 C 210.8 199.0, 438.9 137.6, 772.7 591.8 C 246.4 609.7, 479.3 622.8, 763.5 209.3 C 245.7 332.3, 561.3 41.0, 787.3 74.8" fill="none" stroke="#e9c46a" stroke-width="6.9" opacity="0.66"/><path d="M 31.9 250.0 C 306.3 604.3, 537.3 613.5, 832.7 280.8 C 228.6 617.7, 515.1 212.5, 790.9 158.6 C 180.7 366.1, 460.2 630.2, 836.4 135.6 C 282.2 476.0, 566.5 377.0, 761.4 153.8 C 342.5 187.0, 527.7 614.1, 806.1 315.3" fill="none" stroke="#f4a261" stroke-width="2.2" opacity="0.38"/><path d="M 77.2 340.7 C 264.9 434.5, 493.5 629.1, 818.0 265.3 C 319.8 106.7, 454.0 17.1, 811.3 579.1 C 199.2 458.1, 449.6 595.9, 852.9 72.6 C 243.2 188.4, 481.7 380.7, 760.2 203.8 C 315.1 514.8, 567.8 137.8, 810.0 385.5" fill="none" stroke="#264653" stroke-width="6.4" opacity="0.31"/><path d="M 62.0 525.8 C 294.0 607.2, 426.9 215.1, 819.3 155.0 C 200.1 88.7, 459.1 368.3, 846.9 232.8 C 223.2 597.6, 488.5 75.4, 830.4 412.8 C 218.6 314.2, 518.1 455.2, 866.1 371.5 C 298.4 306.8, 429.6 633.3, 835.7 239.4" fill="none" stroke="#2a9d8f" stroke-width="4.4" opacity="0.47"/><path d="M 25.2 130.3 C 342.9 339.4, 495.2 525.3, 787.7 356.8 C 295.1 412.9, 517.4 644.2, 832.4 353.2 C 300.4 81.0, 532.0 463.2, 781.5 154.3 C 224.4 665.1, 532.5 11.0, 782.2 573.2 C 273.4 11.5, 438.5 536.3, 806.3 433.6" fill="none" stroke="#e9c46a" stroke-width="4.5" opacity="0.36"/><path d="M 137.1 146.5 C 270.5 128.1, 428.2 6.8, 774.9 464.2 C 309.4 260.3, 525.4 553.6, 800.8 311.0 C 287.7 34.2, 566.5 319.8, 818.9 491.7 C 187.0 189.8, 489.0 466.7, 847.3 302.3 C 283.3 637.5, 536.8 416.6, 804.1 455.2" fill="none" stroke="#f4a261" stroke-width="2.3" opacity="0.19"/><path d="M 76.3 487.5 C 225.9 532.2, 506.3 581.9, 816.1 286.7 C 245.5 37.8, 578.1 508.6, 762.0 188.7 C 181.8 228.6, 422.1 515.8, 871.1 191.4 C 297.3 611.8, 432.1 524.5, 760.5 444.6 C 285.9 421.7, 460.3 365.7, 777.3 44.1" fill="none" stroke="#264653" stroke-width="3.8" opacity="0.71"/><path d="M 107.4 512.5 C 189.8 21.1, 534.9 544.9, 790.9 158.6 C 335.2 403.6, 502.9 397.5, 760.4 190.0 C 280.3 308.1, 516.4 353.8, 811.4 98.4 C 252.5 205.2, 577.3 393.9, 857.4 168.0 C 236.1 410.9, 551.5 384.4, 772.9 76.8" fill="none" stroke="#2a9d8f" stroke-width="5.4" opacity="0.62"/><path d="M 39.7 419.6 C 322.2 25.0, 492.7 493.6, 870.0 512.8 C 268.9 21.1, 482.4 82.6, 873.6 334.2 C 271.8 136.0, 527.6 52.6, 760.6 222.7 C 299.9 312.3, 572.6 55.3, 832.3 374.3 C 337.0 336.8, 568.0 334.3, 765.7 529.9" fill="none" stroke="#e9c46a" stroke-width="6.4" opacity="0.43"/><path d="M 74.4 380.8 C 297.0 378.9, 548.9 315.5, 779.7 260.7 C 290.9 98.3, 433.3 425.5, 795.0 107.8 C 292.1 586.3, 520.7 1.7, 854.3 504.4 C 229.2 654.8, 421.1 637.8, 876.1 594.2 C 354.2 443.2, 529.0 658.3, 856.0 204.4" fill="none" stroke="#f4a261" stroke-width="8.0" opacity="0.66"/><path d="M 33.9 141.0 C 340.0 379.1, 512.0 155.5, 769.8 585.9 C 349.9 285.8, 547.3 500.4, 861.5 469.7 C 265.8 257.2, 524.6 456.9, 847.6 487.0 C 222.6 554.2, 537.7 429.5, 820.6 583.2 C 209.1 405.6, 573.5 258.1, 868.6 75.6" fill="none" stroke="#264653" stroke-width="6.4" opacity="0.50"/><path d="M 47.4 247.1 C 288.4 581.6, 442.4 435.7, 830.5 370.9 C 192.9 93.3, 457.9 249.8, 784.1 259.6 C 208.5 330.0, 578.0 443.9, 859.9 141.4 C 315.9 268.5, 561.2 602.5, 806.9 556.9 C 356.9 117.1, 500.2 220.1, 860.3 196.4" fill="none" stroke="#2a9d8f" stroke-width="5.6" opacity="0.34"/><text x="48" y="620" font-family="Arial, sans-serif" font-size="28" font-weight="700" fill="#264653" opacity="0.72">YIJI ORIGINAL 08</text></svg>