<svg xmlns="http://www.w3.org/2000/svg" width="900" height="680" viewBox="0 0 900 680" role="img" aria-label="艺集样品作品 04"><rect width="900" height="680" fill="#affc41"/><rect x="24" y="24" width="852" height="632" fill="none" stroke="#3c1642" stroke-width="2" opacity="0.18"/><path d="M 496.2,340.0 L 482.6,340.0 L 478.3,343.7 L 486.6,349.8 L 499.4,360.5 L 505.1,371.8 L 498.1,376.9 L 483.0,373.0 L 469.7,365.7 L 464.3,364.8 L 464.6,375.2 L 463.9,392.0 L 458.3,403.2 L 450.0,400.4 L 443.9,386.0 L 441.7,371.1 L 439.0,366.5 L 430.8,373.3 L 417.1,382.9 L 404.9,385.1 L 402.2,376.7 L 410.1,363.0 L 420.4,352.3 L 422.2,347.4 L 411.6,345.0 L 395.7,340.0 L 386.7,331.7 L 392.0,324.5 L 407.7,322.5 L 422.4,324.1 L 427.1,322.5 L 422.5,312.5 L 416.8,296.7 L 418.0,284.6 L 427.1,284.7 L 438.2,296.1 L 445.9,308.6 L 450.0,311.1 L 455.1,301.1 L 464.2,287.0 L 474.5,280.9 L 479.8,288.3 L 477.5,304.2 L 472.3,317.7 L 473.0,322.4 L 484.2,320.2 L 500.9,318.9 L 511.8,323.4 L 508.9,332.2 Z" fill="none" stroke="#3c1642" stroke-width="2.9" opacity="0.57"/><path d="M 513.2,340.0 L 499.6,340.0 L 495.2,345.9 L 503.0,354.2 L 515.2,367.0 L 519.9,380.3 L 511.6,387.2 L 495.0,385.0 L 480.1,379.2 L 472.8,379.5 L 471.1,390.9 L 468.3,408.4 L 460.5,420.0 L 450.0,417.4 L 441.7,402.8 L 437.3,387.6 L 432.5,382.2 L 422.3,388.0 L 406.7,396.4 L 392.9,397.1 L 388.7,387.0 L 395.4,371.5 L 404.7,358.8 L 405.8,351.8 L 394.8,347.3 L 378.7,340.0 L 369.8,329.4 L 375.6,320.1 L 392.0,316.0 L 407.7,315.6 L 413.6,312.1 L 410.4,300.4 L 406.4,283.2 L 409.5,269.9 L 420.6,269.0 L 433.8,279.7 L 443.6,291.7 L 450.0,294.1 L 457.3,284.2 L 468.6,270.6 L 481.0,265.2 L 488.3,273.6 L 487.8,290.7 L 484.3,305.7 L 486.5,312.0 L 499.0,311.7 L 516.7,312.4 L 528.3,319.0 L 525.8,330.0 Z" fill="none" stroke="#affc41" stroke-width="3.9" opacity="0.38"/><path d="M 538.4,340.0 L 524.8,340.0 L 520.1,349.2 L 527.3,360.7 L 538.4,376.6 L 541.7,392.9 L 531.5,402.6 L 512.8,402.8 L 495.4,399.2 L 485.4,401.3 L 480.7,414.2 L 474.8,432.7 L 463.8,445.0 L 450.0,442.6 L 438.4,427.8 L 430.7,411.9 L 422.9,405.5 L 409.7,409.8 L 391.4,416.4 L 375.1,414.9 L 368.7,402.3 L 373.6,384.1 L 381.4,368.4 L 381.5,358.4 L 369.8,350.6 L 353.5,340.0 L 344.9,326.2 L 351.3,313.5 L 368.7,306.3 L 385.9,303.0 L 393.7,296.8 L 392.6,282.6 L 391.1,263.2 L 396.9,248.1 L 411.0,245.7 L 427.3,255.3 L 440.4,266.8 L 450.0,268.9 L 460.6,259.3 L 475.1,246.2 L 490.6,241.9 L 500.9,251.8 L 503.2,270.7 L 502.1,287.9 L 506.5,296.7 L 520.8,299.1 L 539.9,302.8 L 552.6,312.5 L 550.8,326.7 Z" fill="none" stroke="#b2ff9e" stroke-width="5.2" opacity="0.60"/><path d="M 561.3,340.0 L 547.7,340.0 L 542.8,352.2 L 549.4,366.6 L 559.5,385.4 L 561.5,404.3 L 549.7,416.5 L 529.0,419.0 L 509.3,417.3 L 496.8,421.1 L 489.5,435.3 L 480.8,454.8 L 466.8,467.7 L 450.0,465.5 L 435.5,450.5 L 424.8,433.9 L 414.1,426.6 L 398.3,429.6 L 377.5,434.5 L 358.9,431.1 L 350.6,416.3 L 353.8,395.6 L 360.3,377.1 L 359.4,364.3 L 347.2,353.5 L 330.6,340.0 L 322.2,323.2 L 329.2,307.6 L 347.6,297.6 L 366.1,291.6 L 375.5,282.9 L 376.5,266.5 L 377.2,245.1 L 385.5,228.3 L 402.2,224.6 L 421.4,233.3 L 437.4,244.1 L 450.0,246.1 L 463.6,236.6 L 481.0,224.2 L 499.4,220.8 L 512.3,232.0 L 517.1,252.6 L 518.3,271.7 L 524.6,282.8 L 540.6,287.7 L 561.0,294.0 L 574.7,306.6 L 573.4,323.8 Z" fill="none" stroke="#f0f7f4" stroke-width="1.4" opacity="0.74"/><path d="M 586.0,340.0 L 572.4,340.0 L 567.3,355.4 L 573.3,373.0 L 582.4,394.8 L 582.9,416.7 L 569.3,431.5 L 546.5,436.5 L 524.4,436.9 L 509.2,442.5 L 498.9,458.2 L 487.2,478.7 L 470.0,492.2 L 450.0,490.2 L 432.2,475.0 L 418.4,457.8 L 404.7,449.4 L 385.9,451.0 L 362.4,454.1 L 341.4,448.6 L 331.0,431.3 L 332.4,407.9 L 337.5,386.6 L 335.5,370.7 L 322.7,356.8 L 305.9,340.0 L 297.7,319.9 L 305.3,301.2 L 324.8,288.1 L 344.7,279.2 L 355.9,267.8 L 359.0,249.0 L 362.1,225.5 L 373.2,206.9 L 392.8,201.8 L 415.0,209.4 L 434.2,219.6 L 450.0,221.4 L 466.8,212.1 L 487.4,200.3 L 508.8,198.0 L 524.7,210.6 L 532.1,233.0 L 535.7,254.3 L 544.2,267.7 L 562.0,275.4 L 583.9,284.6 L 598.5,300.2 L 597.9,320.5 Z" fill="none" stroke="#3c1642" stroke-width="1.4" opacity="0.74"/><path d="M 605.3,340.0 L 591.7,340.0 L 586.5,358.0 L 591.9,378.0 L 600.2,402.2 L 599.6,426.4 L 584.6,443.3 L 560.1,450.1 L 536.1,452.3 L 518.8,459.2 L 506.3,476.0 L 492.2,497.3 L 472.6,511.3 L 450.0,509.5 L 429.7,494.1 L 413.4,476.5 L 397.3,467.3 L 376.3,467.7 L 350.7,469.4 L 327.8,462.2 L 315.7,443.1 L 315.6,417.6 L 319.6,394.0 L 316.9,375.7 L 303.5,359.3 L 286.6,340.0 L 278.5,317.4 L 286.6,296.2 L 306.9,280.7 L 327.9,269.5 L 340.6,256.1 L 345.3,235.3 L 350.3,210.1 L 363.5,190.2 L 385.4,183.9 L 410.0,190.7 L 431.6,200.4 L 450.0,202.0 L 469.4,192.9 L 492.4,181.6 L 516.2,180.1 L 534.4,193.9 L 543.9,217.6 L 549.4,240.6 L 559.5,256.0 L 578.7,265.7 L 601.7,277.2 L 617.2,295.2 L 617.1,318.0 Z" fill="none" stroke="#affc41" stroke-width="3.1" opacity="0.66"/><path d="M 628.4,340.0 L 614.8,340.0 L 609.3,361.0 L 614.2,384.0 L 621.5,411.1 L 619.6,437.9 L 602.9,457.3 L 576.5,466.5 L 550.2,470.6 L 530.4,479.2 L 515.2,497.3 L 498.1,519.6 L 475.6,534.2 L 450.0,532.6 L 426.7,517.0 L 407.5,498.8 L 388.5,488.6 L 364.7,487.7 L 336.6,487.7 L 311.4,478.6 L 297.4,457.1 L 295.7,429.1 L 298.3,402.8 L 294.6,381.6 L 280.6,362.3 L 263.5,340.0 L 255.7,314.4 L 264.4,290.3 L 285.6,271.9 L 308.0,258.0 L 322.3,242.0 L 329.0,219.0 L 336.3,191.8 L 352.0,170.2 L 376.5,162.6 L 404.0,168.4 L 428.6,177.6 L 450.0,179.0 L 472.4,170.1 L 498.4,159.3 L 525.1,158.8 L 545.9,173.9 L 557.9,199.3 L 565.7,224.3 L 577.8,241.9 L 598.7,254.2 L 623.0,268.3 L 639.5,289.2 L 640.0,315.0 Z" fill="none" stroke="#b2ff9e" stroke-width="5.6" opacity="0.62"/><path d="M 652.3,340.0 L 638.7,340.0 L 633.0,364.1 L 637.3,390.2 L 643.6,420.2 L 640.3,449.9 L 621.9,471.9 L 593.4,483.4 L 564.7,489.5 L 542.3,499.9 L 524.3,519.4 L 504.3,542.7 L 478.7,557.9 L 450.0,556.5 L 423.6,540.7 L 401.3,521.9 L 379.3,510.7 L 352.8,508.4 L 322.1,506.7 L 294.5,495.5 L 278.4,471.7 L 274.9,441.1 L 276.2,412.0 L 271.5,387.8 L 256.9,365.4 L 239.6,340.0 L 231.9,311.3 L 241.2,284.1 L 263.5,262.8 L 287.3,246.0 L 303.3,227.4 L 312.1,202.1 L 321.7,172.9 L 340.0,149.5 L 367.4,140.5 L 397.8,145.3 L 425.5,153.9 L 450.0,155.0 L 475.5,146.4 L 504.6,136.2 L 534.2,136.7 L 557.9,153.2 L 572.5,180.3 L 582.6,207.4 L 596.8,227.3 L 619.4,242.2 L 645.1,259.2 L 662.6,283.0 L 663.7,311.9 Z" fill="none" stroke="#f0f7f4" stroke-width="4.0" opacity="0.61"/><path d="M 677.0,340.0 L 663.4,340.0 L 657.5,367.3 L 661.2,396.6 L 666.4,429.7 L 661.7,462.2 L 641.5,486.9 L 610.8,500.8 L 579.8,509.1 L 554.7,521.3 L 533.8,542.2 L 510.7,566.6 L 481.9,582.4 L 450.0,581.2 L 420.4,565.2 L 394.9,545.7 L 369.9,533.5 L 340.4,529.8 L 307.1,526.3 L 277.1,512.9 L 258.8,486.7 L 253.6,453.4 L 253.4,421.4 L 247.6,394.2 L 232.4,368.6 L 214.9,340.0 L 207.5,308.1 L 217.4,277.7 L 240.7,253.3 L 265.9,233.7 L 283.7,212.4 L 294.6,184.6 L 306.7,153.3 L 327.7,128.1 L 357.9,117.7 L 391.5,121.5 L 422.3,129.4 L 450.0,130.4 L 478.7,121.9 L 511.0,112.4 L 543.7,113.9 L 570.2,131.8 L 587.5,160.8 L 600.1,189.9 L 616.4,212.3 L 640.8,229.9 L 667.9,249.7 L 686.4,276.6 L 688.1,308.6 Z" fill="none" stroke="#3c1642" stroke-width="1.6" opacity="0.70"/><path d="M 699.7,340.0 L 686.1,340.0 L 680.0,370.3 L 683.1,402.5 L 687.4,438.3 L 681.3,473.6 L 659.5,500.8 L 626.9,516.9 L 593.6,527.1 L 566.0,541.0 L 542.5,563.2 L 516.6,588.5 L 484.9,604.9 L 450.0,603.9 L 417.4,587.7 L 389.0,567.7 L 361.2,554.5 L 329.1,549.5 L 293.2,544.3 L 261.0,529.0 L 240.8,500.5 L 233.9,464.8 L 232.4,430.1 L 225.7,400.1 L 209.9,371.6 L 192.2,340.0 L 185.0,305.1 L 195.5,271.8 L 219.7,244.6 L 246.2,222.3 L 265.7,198.6 L 278.6,168.6 L 292.9,135.2 L 316.3,108.4 L 349.2,96.7 L 385.6,99.5 L 419.3,106.9 L 450.0,107.6 L 481.7,99.4 L 516.9,90.5 L 552.3,92.9 L 581.6,112.1 L 601.4,142.7 L 616.1,173.9 L 634.4,198.5 L 660.4,218.5 L 688.9,241.0 L 708.4,270.8 L 710.7,305.7 Z" fill="none" stroke="#affc41" stroke-width="3.4" opacity="0.58"/><path d="M 724.7,340.0 L 711.1,340.0 L 704.9,373.6 L 707.3,408.9 L 710.6,447.9 L 703.0,486.1 L 679.4,516.0 L 644.6,534.6 L 608.8,547.0 L 578.6,562.7 L 552.0,586.4 L 523.1,612.7 L 488.1,629.7 L 450.0,628.9 L 414.1,612.5 L 382.5,591.9 L 351.6,577.6 L 316.5,571.2 L 278.0,564.2 L 243.3,546.7 L 220.9,515.8 L 212.2,477.3 L 209.3,439.7 L 201.5,406.6 L 185.1,374.9 L 167.1,340.0 L 160.1,301.8 L 171.3,265.3 L 196.6,235.0 L 224.5,209.8 L 245.8,183.3 L 260.9,150.9 L 277.6,115.4 L 303.8,86.7 L 339.6,73.6 L 379.1,75.4 L 416.0,82.0 L 450.0,82.6 L 484.9,74.5 L 523.3,66.3 L 561.9,69.8 L 594.1,90.4 L 616.6,122.9 L 633.9,156.1 L 654.3,183.2 L 682.1,206.0 L 712.1,231.4 L 732.6,264.3 L 735.5,302.4 Z" fill="none" stroke="#b2ff9e" stroke-width="3.8" opacity="0.41"/><path d="M 746.4,340.0 L 732.8,340.0 L 726.3,376.4 L 728.2,414.5 L 730.6,456.2 L 721.8,496.9 L 696.6,529.2 L 659.9,549.9 L 622.0,564.2 L 589.4,581.4 L 560.3,606.4 L 528.7,633.6 L 491.0,651.2 L 450.0,650.6 L 411.3,634.0 L 376.9,612.8 L 343.3,597.6 L 305.7,589.9 L 264.8,581.4 L 228.0,562.0 L 203.7,529.0 L 193.4,488.1 L 189.3,448.0 L 180.6,412.2 L 163.6,377.7 L 145.5,340.0 L 138.7,299.0 L 150.4,259.7 L 176.6,226.7 L 205.8,199.0 L 228.7,170.2 L 245.6,135.6 L 264.5,98.2 L 293.0,68.0 L 331.4,53.6 L 373.5,54.4 L 413.2,60.6 L 450.0,60.9 L 487.8,53.1 L 529.0,45.3 L 570.2,49.8 L 604.9,71.7 L 629.8,105.7 L 649.2,140.8 L 671.5,170.1 L 700.9,195.2 L 732.1,223.2 L 753.5,258.7 L 757.0,299.6 Z" fill="none" stroke="#f0f7f4" stroke-width="5.7" opacity="0.29"/><path d="M 771.0,340.0 L 757.4,340.0 L 750.8,379.6 L 752.0,420.9 L 753.3,465.6 L 743.1,509.2 L 716.1,544.2 L 677.3,567.3 L 637.0,583.7 L 601.7,602.8 L 569.8,629.1 L 535.0,657.4 L 494.2,675.6 L 450.0,675.2 L 408.1,658.4 L 370.5,636.6 L 333.9,620.4 L 293.4,611.3 L 249.8,600.9 L 210.6,579.4 L 184.2,544.0 L 172.1,500.4 L 166.5,457.4 L 156.8,418.6 L 139.2,380.9 L 120.8,340.0 L 114.2,295.8 L 126.6,253.3 L 153.8,217.3 L 184.4,186.7 L 209.1,155.2 L 228.1,118.1 L 249.5,78.7 L 280.6,46.6 L 321.9,30.8 L 367.1,30.6 L 410.0,36.1 L 450.0,36.3 L 491.0,28.6 L 535.3,21.5 L 579.6,27.0 L 617.2,50.4 L 644.8,86.1 L 666.6,123.4 L 691.0,155.1 L 722.2,182.8 L 754.8,213.7 L 777.3,252.3 L 781.4,296.4 Z" fill="none" stroke="#3c1642" stroke-width="3.8" opacity="0.60"/><text x="48" y="620" font-family="Arial, sans-serif" font-size="28" font-weight="700" fill="#3c1642" opacity="0.72">YIJI ORIGINAL 04</text></svg>