<svg xmlns="http://www.w3.org/2000/svg" width="900" height="680" viewBox="0 0 900 680" role="img" aria-label="艺集样品作品 30"><rect width="900" height="680" fill="#9a031e"/><rect x="24" y="24" width="852" height="632" fill="none" stroke="#0f4c5c" stroke-width="2" opacity="0.18"/><ellipse cx="656.4" cy="300.6" rx="163.8" ry="89.4" fill="none" stroke="#0f4c5c" stroke-width="8.8" opacity="0.68" transform="rotate(72.4 656.4 300.6)"/><ellipse cx="404.9" cy="203.6" rx="110.3" ry="87.6" fill="none" stroke="#9a031e" stroke-width="9.6" opacity="0.42" transform="rotate(108.7 404.9 203.6)"/><ellipse cx="91.6" cy="303.7" rx="123.8" ry="60.8" fill="none" stroke="#fb8b24" stroke-width="5.3" opacity="0.64" transform="rotate(52.1 91.6 303.7)"/><ellipse cx="68.7" cy="492.3" rx="92.0" ry="39.8" fill="none" stroke="#e36414" stroke-width="9.4" opacity="0.34" transform="rotate(143.6 68.7 492.3)"/><ellipse cx="178.0" cy="236.2" rx="156.8" ry="58.1" fill="none" stroke="#0f4c5c" stroke-width="2.2" opacity="0.65" transform="rotate(121.5 178.0 236.2)"/><ellipse cx="560.1" cy="130.3" rx="69.7" ry="24.6" fill="none" stroke="#9a031e" stroke-width="2.1" opacity="0.77" transform="rotate(154.6 560.1 130.3)"/><ellipse cx="495.6" cy="104.5" rx="69.8" ry="76.6" fill="none" stroke="#fb8b24" stroke-width="5.0" opacity="0.32" transform="rotate(167.6 495.6 104.5)"/><ellipse cx="491.5" cy="116.1" rx="95.0" ry="47.2" fill="none" stroke="#e36414" stroke-width="9.3" opacity="0.66" transform="rotate(172.8 491.5 116.1)"/><ellipse cx="345.4" cy="442.9" rx="182.0" ry="88.8" fill="none" stroke="#0f4c5c" stroke-width="6.5" opacity="0.42" transform="rotate(22.0 345.4 442.9)"/><ellipse cx="364.6" cy="285.6" rx="59.9" ry="48.5" fill="none" stroke="#9a031e" stroke-width="6.2" opacity="0.71" transform="rotate(83.1 364.6 285.6)"/><ellipse cx="437.2" cy="400.8" rx="58.7" ry="80.1" fill="none" stroke="#fb8b24" stroke-width="5.4" opacity="0.40" transform="rotate(103.3 437.2 400.8)"/><ellipse cx="255.8" cy="508.9" rx="179.7" ry="77.6" fill="none" stroke="#e36414" stroke-width="5.3" opacity="0.72" transform="rotate(0.5 255.8 508.9)"/><ellipse cx="256.9" cy="560.0" rx="87.4" ry="45.3" fill="none" stroke="#0f4c5c" stroke-width="6.8" opacity="0.71" transform="rotate(46.8 256.9 560.0)"/><ellipse cx="100.1" cy="418.0" rx="55.3" ry="87.3" fill="none" stroke="#9a031e" stroke-width="5.1" opacity="0.66" transform="rotate(153.1 100.1 418.0)"/><ellipse cx="147.9" cy="556.5" rx="126.5" ry="68.3" fill="none" stroke="#fb8b24" stroke-width="3.5" opacity="0.32" transform="rotate(160.5 147.9 556.5)"/><ellipse cx="461.6" cy="419.0" rx="186.8" ry="51.8" fill="none" stroke="#e36414" stroke-width="2.7" opacity="0.27" transform="rotate(24.8 461.6 419.0)"/><ellipse cx="408.5" cy="80.9" rx="171.5" ry="21.1" fill="none" stroke="#0f4c5c" stroke-width="4.0" opacity="0.65" transform="rotate(130.4 408.5 80.9)"/><ellipse cx="257.3" cy="481.9" rx="30.1" ry="80.0" fill="none" stroke="#9a031e" stroke-width="4.3" opacity="0.51" transform="rotate(173.5 257.3 481.9)"/><text x="48" y="620" font-family="Arial, sans-serif" font-size="28" font-weight="700" fill="#0f4c5c" opacity="0.72">YIJI ORIGINAL 30</text></svg>