<svg xmlns="http://www.w3.org/2000/svg" width="900" height="680" viewBox="0 0 900 680" role="img" aria-label="艺集样品作品 11"><rect width="900" height="680" fill="#f3efe6"/><rect x="24" y="24" width="852" height="632" fill="none" stroke="#223843" stroke-width="2" opacity="0.18"/><rect x="395.2" y="352.8" width="138.2" height="161.9" rx="33.3" fill="#d77a61" opacity="0.29" transform="rotate(-4.1 464.3 433.7)"/><rect x="190.5" y="393.0" width="202.8" height="126.0" rx="21.6" fill="#7d9d9c" opacity="0.79" transform="rotate(14.5 292.0 456.0)"/><rect x="706.9" y="228.1" width="210.6" height="80.3" rx="15.1" fill="#223843" opacity="0.52" transform="rotate(13.8 812.2 268.2)"/><rect x="425.3" y="50.4" width="82.4" height="154.1" rx="36.6" fill="#f3efe6" opacity="0.47" transform="rotate(1.7 466.5 127.5)"/><rect x="365.7" y="543.1" width="202.2" height="137.1" rx="31.7" fill="#d77a61" opacity="0.78" transform="rotate(0.9 466.7 611.6)"/><rect x="191.5" y="405.9" width="198.9" height="72.8" rx="12.2" fill="#7d9d9c" opacity="0.61" transform="rotate(-19.9 291.0 442.3)"/><rect x="146.4" y="275.3" width="204.4" height="105.0" rx="18.5" fill="#223843" opacity="0.23" transform="rotate(-4.3 248.6 327.8)"/><rect x="376.7" y="513.2" width="190.8" height="129.8" rx="16.4" fill="#f3efe6" opacity="0.34" transform="rotate(0.1 472.1 578.1)"/><rect x="159.8" y="91.5" width="156.9" height="76.4" rx="8.1" fill="#d77a61" opacity="0.61" transform="rotate(-5.8 238.3 129.7)"/><rect x="397.9" y="298.4" width="55.7" height="94.3" rx="22.7" fill="#7d9d9c" opacity="0.25" transform="rotate(19.5 425.8 345.5)"/><rect x="270.1" y="258.3" width="68.0" height="85.9" rx="10.5" fill="#223843" opacity="0.48" transform="rotate(-0.5 304.1 301.2)"/><rect x="407.8" y="307.2" width="209.6" height="90.2" rx="36.9" fill="#f3efe6" opacity="0.80" transform="rotate(-5.5 512.6 352.3)"/><rect x="376.2" y="469.4" width="82.4" height="123.4" rx="6.4" fill="#d77a61" opacity="0.53" transform="rotate(-13.9 417.4 531.1)"/><rect x="618.6" y="445.2" width="137.1" height="188.3" rx="20.9" fill="#7d9d9c" opacity="0.36" transform="rotate(8.7 687.2 539.4)"/><rect x="93.7" y="111.2" width="183.7" height="63.8" rx="30.8" fill="#223843" opacity="0.55" transform="rotate(18.9 185.6 143.1)"/><rect x="351.8" y="277.4" width="236.0" height="48.5" rx="12.3" fill="#f3efe6" opacity="0.46" transform="rotate(-12.6 469.8 301.6)"/><text x="48" y="620" font-family="Arial, sans-serif" font-size="28" font-weight="700" fill="#223843" opacity="0.72">YIJI ORIGINAL 11</text></svg>